<svg xmlns="http://www.w3.org/2000/svg" width="512" height="512" viewBox="0 0 135.467 135.467"><path d="M101.543 90.63c-1.295-5.158-4.65-8.837-8.583-8.837h-2.144v5.744c0 4.79-3.148 8.259-6.99 8.853a7.69 7.69 0 0 1-1.173.091H67.985c-.622-.001-1.242.079-1.844.236-2.701.709-4.703 2.956-4.703 5.87v12.32c0 3.511 3.528 5.569 6.989 6.575 4.141 1.205 8.653 1.422 13.61 0 3.292-.941 6.519-2.842 6.519-6.575v-4.06H74.997v-1.937H92.96c3.564 0 6.652-3.018 8.165-7.422.665-1.977.999-4.051.989-6.137.003-1.591-.188-3.177-.571-4.721zm-19.221 22.638c.999-.003 1.901.596 2.285 1.518s.173 1.985-.533 2.691-1.769.917-2.691.533-1.522-1.286-1.518-2.285c0-.652.258-1.277.719-1.738s1.086-.72 1.738-.719zm-.304-44.504c-2.251-.37-5.545-.541-7.781-.53a37.66 37.66 0 0 0-6.254.53c-5.537.968-6.546 2.99-6.546 6.724v4.368h13.559v1.937H57.034c-5.031 0-9.115 6.013-9.155 13.452v.107a19.72 19.72 0 0 0 .379 3.874c1.125 5.603 4.628 9.685 8.776 9.685h2.467v-6.537c0-3.789 2.523-7.258 6.658-8.002l1.195-.149h14.664c.616.002 1.229-.079 1.823-.242 2.793-.746 4.73-3.282 4.714-6.173V75.488c0-3.501-2.988-6.141-6.537-6.724zm-14.415 8.368c-.999.003-1.901-.596-2.285-1.518s-.173-1.985.533-2.691 1.769-.917 2.691-.533 1.522 1.286 1.518 2.285c0 .652-.258 1.277-.719 1.738s-1.086.72-1.738.719zm67.863 56.336H0l45.098-96.196 27.166 19.971 35.433-55.245z" fill="#ffffff"/></svg>
